<?xml version="1.0" standalone="no"?>
<!DOCTYPE svg PUBLIC "-//W3C//DTD SVG 20010904//EN"
 "http://www.w3.org/TR/2001/REC-SVG-20010904/DTD/svg10.dtd">
<svg version="1.0" xmlns="http://www.w3.org/2000/svg"
 width="240.000000pt" height="240.000000pt" viewBox="0 0 240.000000 240.000000"
 preserveAspectRatio="xMidYMid meet">
<metadata>
Created by potrace 1.14, written by Peter Selinger 2001-2017
</metadata>
<g transform="translate(0.000000,240.000000) scale(0.100000,-0.100000)"
fill="#000000" stroke="none">
<path d="M1659 2269 c-301 -44 -467 -299 -390 -601 26 -102 64 -183 154 -326
96 -152 124 -209 138 -272 31 -144 -76 -275 -235 -287 l-62 -5 23 -101 c12
-55 25 -132 28 -171 10 -120 5 -113 77 -108 164 10 292 66 387 167 102 110
145 231 145 410 0 186 -30 268 -185 507 -49 75 -100 161 -114 190 -31 66 -33
138 -5 183 39 63 162 106 248 86 37 -8 42 -7 42 9 0 23 -63 243 -84 293 -16
36 -18 37 -64 36 -26 -1 -72 -5 -103 -10z"/>
<path d="M840 2256 l-125 -11 3 -35 c17 -236 23 -347 33 -622 27 -749 -19
-1001 -216 -1192 l-61 -59 34 -96 c18 -53 37 -100 41 -104 10 -10 85 22 165
73 189 120 307 338 346 640 7 50 14 361 17 753 l5 667 -58 -1 c-33 -1 -115 -7
-184 -13z"/>
</g>
</svg>
